<svg xmlns="http://www.w3.org/2000/svg" width="27" height="51" viewBox="0 0 27 51">
    <g fill="none" fill-rule="evenodd" stroke="#282D33" stroke-width="1.563">
        <path d="M8.462 3.18L8.462 22.017 2.155 10.234 2.155 0 22.797 0 22.797 10.234 16.489 22.017 16.489 3.18M24.952 36.994c0 6.752-5.586 12.225-12.476 12.225C5.586 49.219 0 43.746 0 36.994c0-6.75 5.586-12.224 12.476-12.224 6.89 0 12.476 5.473 12.476 12.224z" transform="translate(1 1)"/>
        <path d="M12.476 31.013L13.991 35.582 18.895 35.582 14.928 38.406 16.442 42.976 12.476 40.151 8.508 42.976 10.024 38.406 6.057 35.582 10.96 35.582zM12.476 22.119L12.476 11.1M12.476 8.775L12.476 5.935" transform="translate(1 1)"/>
    </g>
</svg>
