<svg xmlns="http://www.w3.org/2000/svg" width="32" height="22" viewBox="0 0 32 22">
    <g fill="none" fill-rule="evenodd" stroke="#282D33" stroke-width=".952">
        <path d="M26.556 11.373L26.556 17.857" transform="translate(1 1)"/>
        <g>
            <path d="M3.443 17.63V2.887c0-.438.355-.794.79-.794H15.71M27.621.01h-9.387c-.446 0-.807.422-.807.94v7.678c0 .519.36.94.807.94h1.44v1.8l2.111-1.8h5.836c.448 0 .81-.421.81-.94V.951c0-.52-.362-.94-.81-.94z" transform="translate(1 1) translate(0 .227)"/>
            <path d="M25.438 4.527L23.459 5.676 21.48 6.825 21.48 4.527 21.48 2.228 23.459 3.377zM5.433 17.27v-1.11c0-.768.698-1.389 1.56-1.389h6.841c.862 0 1.56.621 1.56 1.388v.814M9.073 14.785L9.073 13.519M11.692 13.519L11.692 14.785M13.476 7.58v3c0 1.726-1.39 2.829-3.107 2.829-1.715 0-3.106-1.103-3.106-2.829v-.56" transform="translate(1 1) translate(0 .227)"/>
            <path d="M8.958 4.897c-.564 0-1.06.292-1.348.733h-.554c-.69 0-1.25.563-1.25 1.257V9.33l1.472 1.785V8.731c0-.489.394-.885.88-.885h5.051c.891 0 1.613-.726 1.613-1.622V4.897H8.958zM0 17.557v1.426s1.037.779 1.799.779H28.2c.762 0 1.799-.78 1.799-.78v-1.425H0z" transform="translate(1 1) translate(0 .227)"/>
        </g>
    </g>
</svg>
