<svg xmlns="http://www.w3.org/2000/svg" xmlns:xlink="http://www.w3.org/1999/xlink" width="30" height="30" viewBox="0 0 30 30">
    <defs>
        <path id="prefix__a" d="M0 30L29.784 30 29.784 0 0 0z"/>
    </defs>
    <g fill="none" fill-rule="evenodd">
        <path stroke="#282D33" stroke-width=".8" d="M4.879 12.635V1.456c0-.55.467-.994 1.044-.994H23.48c.577 0 1.045.445 1.045.994v14.078M16.494 26.203L11.968 26.203M14.928 24.037L8.798 24.037M6.689 3.389L22.714 3.389"/>
        <path stroke="#282D33" stroke-width=".8" d="M27.967 30v-1.528c.812-.578 1.338-1.497 1.338-2.535v-5.496l-.062-1.214c0-.651-.554-1.178-1.238-1.178-.683 0-1.237.233-1.237.883v-.294c0-.651-.554-1.178-1.237-1.178-.684 0-1.238.527-1.238 1.178v-.59c0-.65-.554-1.177-1.238-1.177-.683 0-1.237.527-1.237 1.178v.663c0-1.595-.011-6.786-.011-6.786 0-.671-.574-1.218-1.281-1.218s-1.28.547-1.28 1.218L19.24 23.83l-.025-.58v-2.433c0-.994-.845-1.8-1.891-1.8h-.63c-.027 0 .027.003 0 .005v2.252c.004 0-.004 0 0 .001v2.988l3.584 4.054s.929.56 1.5.693V30M2.026 26.037v-7.791l1.864-4.013.014-.03 4.207.06c.002.029.006.056.005.084l-.012.667C8.086 16.118 7.13 17 5.97 16.98l-.46-.013-.651 1.859c1.321.927 2.215 2.698 2.215 4.73 0 .932-.187 1.807-.517 2.572M10.275 30L10.275 26.237.48 26.237.48 30"/>
        <mask id="prefix__b" fill="#fff">
            <use xlink:href="#prefix__a"/>
        </mask>
        <path stroke="#282D33" stroke-width=".8" d="M8.199 9.399L13.271 9.399 13.271 5.778 8.199 5.778zM7.485 11.813L17.128 11.813M9.705 14.227L17.128 14.227M9.705 16.64L17.128 16.64M7.485 19.054L14.672 19.054" mask="url(#prefix__b)"/>
        <path stroke="#282D33" stroke-dasharray=".8" stroke-width=".8" d="M20.528 8.75L20.528 4.979" mask="url(#prefix__b)"/>
    </g>
</svg>
