<svg xmlns="http://www.w3.org/2000/svg" width="31" height="31" viewBox="0 0 31 31">
    <g fill="none" fill-rule="evenodd" stroke="#282D33" stroke-width=".8">
        <path d="M22.685 2.353L6.8 2.353M4.156 2.353L0 2.353 0 8.323 29.558 8.323 29.558 2.353 25.086 2.353M5.7 11.876L4.031 11.876M9.005 11.876L7.335 11.876M12.309 11.876L10.64 11.876M15.614 11.876L13.945 11.876M18.918 11.876L17.249 11.876M22.223 11.876L20.553 11.876M25.527 11.876L23.858 11.876M5.7 14.814L4.031 14.814M9.005 14.814L7.335 14.814M12.309 14.814L10.64 14.814M15.614 14.814L13.945 14.814M18.918 14.814L17.249 14.814M22.223 14.814L20.553 14.814M25.527 14.814L23.858 14.814M5.7 17.752L4.031 17.752M9.005 17.752L7.335 17.752M12.309 17.752L10.64 17.752M15.614 17.752L13.945 17.752M5.7 20.689L4.031 20.689M9.005 20.689L7.335 20.689M12.309 20.689L10.64 20.689" transform="translate(1 1)"/>
        <g>
            <path d="M28.456 16.633L28.456 8.357M.102 8.357L.102 25.267 13.411 25.267M22.334 5.208L24.819 5.208 24.819 0 22.334 0M3.739 5.208L6.223 5.208 6.223 0 3.739 0" transform="translate(1 1) translate(.5)"/>
        </g>
        <path d="M11.213 5.191L18.345 5.191" transform="translate(1 1)"/>
        <g>
            <path d="M13.27 6.29c0 3.408-2.956 6.172-6.603 6.172S.063 9.698.063 6.289C.063 2.88 3.02.117 6.667.117c3.647 0 6.603 2.763 6.603 6.172z" transform="translate(1 1) translate(15.75 16.615)"/>
            <path d="M3.444 6.338L5.188 7.968 9.836 3.622" transform="translate(1 1) translate(15.75 16.615)"/>
        </g>
    </g>
</svg>
