<svg xmlns="http://www.w3.org/2000/svg" width="32" height="32" viewBox="0 0 32 32">
    <g fill="none" fill-rule="evenodd">
        <path stroke="#282D33" stroke-width=".787" d="M5.236 27.107L4.687 27.642 0.233 28.921 1.549 24.59 2.098 24.056" transform="translate(1 1)"/>
        <path fill="#282D33" d="M23.2 2.61L1.187 24.015l4.092 3.978L27.29 6.589 23.2 2.61zm0 1.344l2.71 2.635-20.631 20.06-2.71-2.634L23.2 3.955z" transform="translate(1 1)"/>
        <path stroke="#282D33" stroke-width=".787" d="M24.948 4.889L4.098 25.163" transform="translate(1 1)"/>
        <g stroke="#282D33" stroke-width=".787">
            <path d="M27.2 4.559l1.266-1.23c.156-.153.128-.425-.063-.61L25.952.336C25.76.15 25.48.121 25.324.273l-1.266 1.23M20.899 3.652L23.32 1.297 27.412 5.276 24.99 7.631M12.061 0L.015 0 .015 10.102 1.884 10.102 4.64 12.782 4.64 10.102 12.061 10.102zM16.006 29.744L28.051 29.744 28.051 19.642 26.182 19.642 23.426 16.962 23.426 19.642 16.006 19.642z" transform="translate(1 1) translate(1.23)"/>
            <path d="M8.541 5.02c0 1.518-1.265 2.748-2.826 2.748-1.561 0-2.827-1.23-2.827-2.748 0-1.518 1.266-2.749 2.827-2.749S8.54 3.501 8.54 5.02zM6.749 6.16L8.472 7.835M18.814 27.558L20.486 24.743 22.158 21.927 23.83 24.743 25.502 27.558M19.843 25.923L24.473 25.923" transform="translate(1 1) translate(1.23)"/>
        </g>
    </g>
</svg>
