<svg xmlns="http://www.w3.org/2000/svg" width="31" height="31" viewBox="0 0 31 31">
    <g fill="none" fill-rule="evenodd">
        <path stroke="#282D33" stroke-width=".781" d="M16.609 19.353L16.341 19.085 15.05 15.18 18.965 16.468 19.234 16.736"/>
        <path fill="#282D33" d="M19.269 15.976l-3.421 3.413 9.98 9.956 3.42-3.413-9.98-9.956zm0 1.324l8.652 8.632-2.094 2.089-8.652-8.632 2.094-2.09z"/>
        <path stroke="#282D33" stroke-width=".781" d="M27.289 27.39L18.281 18.404"/>
        <g stroke="#282D33" stroke-width=".781">
            <path d="M26.103 28.85l1.067 1.065c.132.132.368.108.53-.053l2.065-2.062c.162-.161.187-.397.055-.528l-1.067-1.065M23.004 20.464c2.945-4.12 2.562-9.878-1.143-13.575-4.127-4.116-10.825-4.116-14.958 0-4.13 4.12-4.123 10.801-.003 14.918 3.619 3.604 9.198 4.058 13.303 1.354"/>
            <path d="M20.498 17.803c1.52-2.673 1.136-6.131-1.147-8.41-2.742-2.733-7.191-2.733-9.937 0-2.743 2.737-2.739 7.175-.001 9.91 2.216 2.208 5.54 2.636 8.182 1.28"/>
            <path d="M16.641 12.098c-1.247-1.243-3.268-1.243-4.516 0-1.247 1.244-1.245 3.26 0 4.503 1.248 1.244 3.27 1.245 4.516.001 1.247-1.243 1.246-3.26 0-4.504zM14.384 28.7L14.384 19.537M19.583 14.35L28.768 14.35M0 14.35L9.184 14.35M14.4 0L14.4 9.184"/>
        </g>
    </g>
</svg>
