<svg xmlns="http://www.w3.org/2000/svg" width="32" height="26" viewBox="0 0 32 26">
    <g fill="none" fill-rule="evenodd" stroke="#282D33" stroke-width=".794">
        <path d="M25.15 22.561L30 22.561 30 4.332M0 4.331L0 22.561 17.628 22.561" transform="translate(1 1)"/>
        <path d="M12.81 3.201H2.053v17.548h10.755c1.164 0 2.105.828 2.105 1.847V5.048c0-1.02-.941-1.847-2.105-1.847zM17.628 20.75h-.437c-1.162 0-2.105.827-2.105 1.847V5.048c0-1.02.943-1.847 2.105-1.847h.437M25.15 3.201L27.947 3.201 27.947 20.749 25.15 20.749M4.194 5.636L9.199 5.636M4.194 8.491L12.626 8.491M4.194 10.587L12.626 10.587M4.194 12.682L10.215 12.682M22.869 22.588L21.538 24.729 20.204 22.588zM19.504.248V1.74h4.066V.248c0-.138-.166-.247-.373-.248L19.879 0c-.209 0-.375.11-.375.247zM23.57 21.202L23.57 3.259 19.504 3.259 19.504 21.202M21.537 3.15L21.537 8.991" transform="translate(1 1)"/>
    </g>
</svg>
